<?xml version="1.0" standalone="no"?>
<!DOCTYPE svg PUBLIC "-//W3C//DTD SVG 20010904//EN"
 "http://www.w3.org/TR/2001/REC-SVG-20010904/DTD/svg10.dtd">
<svg version="1.0" xmlns="http://www.w3.org/2000/svg"
 width="512.000000pt" height="512.000000pt" viewBox="0 0 512.000000 512.000000"
 preserveAspectRatio="xMidYMid meet">

<g transform="translate(0.000000,512.000000) scale(0.100000,-0.100000)"
fill="#000000" stroke="none">
<path d="M2500 4905 c-30 -8 -93 -22 -140 -31 -102 -19 -172 -53 -305 -147
-117 -82 -165 -125 -208 -187 -40 -58 -137 -169 -205 -233 -80 -77 -140 -216
-199 -467 -25 -105 -27 -132 -27 -310 0 -178 3 -203 26 -282 14 -49 20 -88 15
-88 -5 0 -27 5 -48 12 -34 10 -42 9 -59 -7 -11 -10 -20 -24 -20 -30 0 -7 -11
-48 -25 -90 l-26 -78 17 -86 c9 -47 32 -127 50 -178 29 -77 55 -170 79 -279 6
-29 58 -49 123 -48 58 0 54 6 81 -116 6 -25 28 -97 50 -161 62 -181 71 -359
27 -568 -8 -40 -21 -80 -27 -87 -7 -8 -48 -32 -93 -54 -46 -23 -107 -64 -141
-96 -114 -104 -181 -145 -299 -181 -60 -18 -159 -42 -220 -53 -61 -10 -160
-30 -221 -44 -74 -16 -140 -24 -200 -24 -69 0 -111 -6 -180 -27 -49 -15 -127
-35 -172 -45 -114 -25 -153 -39 -153 -55 0 -11 7 -10 33 5 17 10 77 28 132 40
55 12 134 30 175 41 47 12 121 20 200 23 95 3 147 10 215 30 50 14 128 33 175
41 183 34 281 66 370 122 83 51 85 52 92 30 6 -18 7 -17 4 6 -3 23 7 37 58 84
60 55 169 115 192 106 8 -3 2 -19 -18 -48 -30 -43 -30 -43 -19 -111 15 -82 37
-133 95 -216 67 -95 193 -220 254 -251 15 -8 52 -27 82 -43 111 -61 160 -75
280 -84 67 -5 156 -20 215 -36 146 -39 172 -40 273 -9 184 57 340 151 398 240
37 57 13 235 -43 318 -20 28 -42 67 -50 85 l-14 33 33 -17 c18 -9 51 -33 73
-55 22 -21 99 -69 170 -107 72 -38 150 -83 175 -101 102 -73 132 -89 215 -110
47 -13 89 -20 92 -17 4 3 -1 6 -10 6 -10 0 -17 4 -17 8 0 5 -30 14 -67 21 -79
14 -106 28 -198 96 -38 29 -120 78 -181 108 -64 32 -136 78 -169 106 -32 28
-70 56 -86 63 -15 7 -30 21 -33 31 -9 34 14 188 50 347 43 183 46 192 84 241
86 108 163 240 228 391 l20 47 38 -20 c111 -56 185 10 233 208 40 163 49 199
65 242 9 24 17 76 18 117 1 81 -14 116 -63 141 -33 17 -104 16 -118 -1 -10
-12 -3 -13 47 -9 51 5 61 3 87 -19 48 -42 47 -145 -4 -283 -11 -27 -26 -90
-35 -139 -21 -110 -60 -210 -93 -236 -29 -22 -83 -26 -131 -9 -25 8 -31 17
-34 42 -3 29 -5 26 -27 -33 -89 -243 -267 -497 -437 -625 -190 -143 -448 -203
-658 -152 -213 53 -488 243 -602 419 -60 91 -125 275 -149 418 -3 19 -14 80
-25 135 -11 55 -24 145 -30 199 -6 55 -13 102 -15 105 -11 10 8 -197 26 -294
27 -142 26 -145 -16 -145 -37 0 -98 21 -108 37 -4 5 -13 45 -22 87 -9 43 -30
115 -47 159 -79 214 -93 303 -59 379 11 24 23 56 26 71 8 37 26 42 92 27 64
-16 68 -22 78 -133 4 -42 11 -77 16 -77 5 0 9 39 9 88 0 119 35 447 59 557 81
366 119 490 183 583 17 26 63 79 102 117 65 65 84 76 230 144 223 102 257 114
346 114 58 0 98 -8 175 -33 97 -32 106 -33 275 -34 161 -1 179 -3 221 -24 146
-72 344 -307 396 -471 13 -40 28 -121 34 -180 6 -60 23 -145 39 -196 39 -126
43 -168 26 -277 -9 -52 -16 -139 -17 -194 -1 -119 -14 -267 -35 -387 -14 -78
-13 -89 0 -109 9 -12 16 -37 16 -55 0 -17 10 -48 21 -68 21 -35 22 -35 42 -18
24 22 87 149 87 177 0 11 13 47 30 81 16 34 33 82 36 108 8 55 -10 107 -36
107 -19 0 -155 -128 -146 -137 3 -3 31 17 61 46 31 28 61 51 66 51 21 0 21
-56 0 -120 -11 -36 -21 -86 -21 -111 0 -35 -10 -61 -46 -123 l-47 -77 -12 28
c-28 64 -37 154 -21 227 8 38 12 75 9 83 -3 8 0 40 6 71 6 31 13 70 16 86 2
15 10 38 18 50 14 21 51 158 62 231 4 22 16 82 27 134 19 84 20 103 10 180 -7
48 -21 120 -32 161 -11 41 -31 136 -45 210 -30 162 -52 230 -120 375 -69 147
-169 289 -290 411 -129 131 -138 134 -371 134 -150 0 -180 3 -224 20 -58 23
-93 24 -170 5z m-650 -3065 c130 -131 230 -199 410 -277 155 -68 402 -60 591
18 82 33 179 99 263 179 37 35 56 48 53 35 -53 -175 -92 -419 -82 -502 5 -38
18 -70 51 -120 54 -82 65 -120 66 -227 2 -105 -12 -132 -105 -197 -93 -66
-162 -100 -265 -133 -108 -34 -145 -34 -277 -1 -60 14 -159 30 -220 35 -73 6
-132 16 -175 32 -304 111 -607 475 -522 628 46 83 70 139 85 205 22 92 39 248
32 299 -3 23 -7 61 -10 87 -2 25 -7 54 -11 65 -3 10 4 3 17 -16 13 -19 58 -69
99 -110z"/>
<path d="M1984 3785 c-110 -24 -172 -69 -228 -166 -24 -42 -35 -89 -20 -89 3
0 28 20 56 44 94 86 216 107 408 72 94 -18 168 -20 189 -7 10 6 12 19 7 45 -9
47 -66 81 -171 101 -92 18 -159 18 -241 0z"/>
<path d="M2890 3711 c-48 -17 -90 -50 -90 -70 1 -28 23 -31 230 -34 235 -3
268 -9 362 -69 26 -16 51 -27 56 -24 18 11 -1 55 -47 112 -70 87 -88 93 -287
100 -151 4 -175 3 -224 -15z"/>
<path d="M1964 3504 c-23 -8 -59 -31 -80 -50 l-39 -35 45 31 c25 16 74 37 109
46 82 20 164 8 236 -37 41 -26 46 -27 30 -9 -11 13 -42 33 -70 46 -59 28 -165
31 -231 8z"/>
<path d="M1989 3473 c-49 -16 -139 -79 -147 -102 -7 -21 34 -4 103 41 l60 40
3 -40 c9 -114 156 -124 178 -12 4 16 8 30 11 30 14 0 53 -28 91 -63 58 -57 53
-27 -6 32 -82 81 -190 109 -293 74z m146 -84 c0 -7 -8 -15 -17 -17 -18 -3 -25
18 -11 32 10 10 28 1 28 -15z"/>
<path d="M3020 3451 c-34 -7 -100 -37 -100 -45 0 -2 23 5 51 15 103 39 291 10
360 -57 18 -17 28 -22 24 -12 -9 23 -61 61 -113 81 -50 20 -170 30 -222 18z"/>
<path d="M2946 3395 c-22 -8 -51 -26 -65 -40 l-26 -26 45 24 c25 14 55 28 68
32 20 6 22 3 22 -32 0 -83 92 -125 145 -67 15 16 25 39 25 55 0 38 14 37 79
-6 57 -38 101 -54 101 -37 0 19 -69 64 -136 88 -76 28 -194 32 -258 9z m124
-64 c0 -14 -18 -23 -30 -16 -6 4 -8 11 -5 16 8 12 35 12 35 0z"/>
<path d="M1383 3064 c28 -15 36 -26 15 -21 -14 2 -36 -64 -37 -111 -1 -18 6
-46 14 -62 8 -16 20 -63 26 -106 10 -61 17 -82 40 -105 25 -26 29 -27 38 -12
7 13 3 21 -13 34 -15 11 -27 38 -35 76 -7 32 -19 79 -27 105 -33 110 -27 171
14 149 30 -16 90 -92 107 -137 l15 -39 -6 45 c-7 45 -33 85 -105 162 -20 21
-45 38 -55 38 -15 -1 -13 -4 9 -16z"/>
<path d="M2285 2897 c-24 -57 -19 -106 12 -139 15 -15 31 -28 37 -28 5 0 -3
14 -20 31 -24 25 -29 38 -27 74 1 24 7 53 13 65 6 12 9 24 6 27 -3 4 -13 -10
-21 -30z"/>
<path d="M2834 2915 c2 -11 7 -33 10 -48 10 -42 -3 -94 -30 -120 -29 -27 -31
-41 -3 -27 46 25 63 143 29 198 -10 15 -11 15 -6 -3z"/>
<path d="M2392 2838 c-50 -24 13 -64 80 -51 l42 9 -29 20 c-40 29 -66 35 -93
22z"/>
<path d="M2672 2824 c-31 -21 -28 -28 18 -49 32 -15 42 -15 55 -5 30 25 11 70
-30 70 -11 0 -31 -7 -43 -16z"/>
<path d="M2445 2530 c-13 -6 -15 -9 -5 -9 8 0 22 4 30 9 18 12 2 12 -25 0z"/>
<path d="M2490 2522 c0 -4 -17 -9 -37 -10 -52 -4 -74 -12 -67 -24 4 -7 2 -8
-5 -4 -12 8 -41 -10 -41 -24 0 -5 8 -11 18 -13 9 -3 2 -5 -16 -6 -24 -1 -31 2
-26 12 4 7 3 9 -2 4 -5 -5 -9 -14 -9 -20 0 -7 -10 -16 -23 -22 -12 -5 -20 -16
-17 -23 3 -8 -3 -11 -18 -8 -13 2 -31 -2 -41 -9 -17 -13 -17 -14 1 -23 10 -5
32 -8 48 -7 28 3 28 2 8 -7 -26 -13 -31 -31 -6 -21 10 4 14 2 10 -4 -8 -12 16
-34 60 -57 28 -14 32 -14 27 -1 -4 8 -14 15 -24 15 -18 0 -47 28 -45 45 0 6 4
16 8 23 5 6 5 17 2 22 -3 6 -3 10 2 11 4 0 17 3 28 6 11 2 47 7 81 10 51 4 61
3 61 -11 0 -11 -10 -16 -31 -16 -17 -1 -48 -7 -70 -15 -21 -7 -46 -11 -55 -7
-13 5 -14 3 -4 -9 6 -8 24 -16 39 -17 15 -1 33 -7 40 -13 9 -8 14 -8 14 -1 0
6 -6 13 -12 15 -12 5 5 8 82 13 86 6 119 6 129 0 14 -9 14 -76 0 -76 -5 0 -7
-4 -4 -10 3 -5 22 -10 41 -10 21 0 33 -4 29 -10 -3 -5 1 -10 9 -10 25 0 18 19
-9 26 -22 5 -25 12 -25 49 0 45 13 56 65 54 l20 0 -20 -9 c-25 -11 0 -11 35 0
23 7 22 8 -14 15 -25 5 -51 3 -73 -4 -18 -7 -37 -9 -43 -6 -14 9 -82 9 -111 0
-16 -5 -21 -4 -14 3 6 5 19 13 30 16 12 3 9 4 -7 2 -17 -2 -28 2 -28 9 0 9 15
8 63 -2 37 -8 85 -11 119 -7 35 4 72 1 95 -7 l38 -12 -35 -13 c-32 -12 -33
-13 -12 -20 12 -3 22 -10 22 -15 0 -14 -28 -11 -33 4 -2 7 -8 8 -13 3 -5 -5
-4 -11 3 -13 9 -3 9 -10 -3 -28 -11 -18 -12 -25 -3 -31 7 -4 9 -3 5 4 -9 16
45 54 70 49 17 -3 21 0 16 11 -4 11 -1 14 11 9 11 -4 14 -2 10 9 -6 16 -19 18
-28 4 -3 -5 -11 -10 -18 -10 -6 0 -2 7 11 15 17 12 26 13 42 5 16 -8 26 -7 45
7 33 24 31 33 -5 33 -16 0 -30 5 -30 11 0 6 -9 8 -20 4 -11 -3 -20 -2 -20 3 0
6 5 12 11 14 7 2 5 9 -5 17 -14 12 -16 12 -11 -1 7 -18 -41 -31 -65 -17 -11 6
-6 8 18 9 l32 0 -39 35 c-21 19 -46 35 -55 35 -10 0 -14 5 -11 10 10 16 20 12
56 -20 19 -16 39 -30 44 -30 11 0 -18 25 -84 72 l-45 31 -37 -21 c-21 -12 -45
-22 -53 -22 -21 0 -31 -21 -15 -31 7 -4 10 -12 5 -16 -5 -4 -11 -2 -13 5 -3 6
-12 12 -21 12 -13 0 -14 2 -4 9 11 7 10 10 -3 15 -23 8 -27 8 -20 -4 10 -16
-5 -12 -23 7 -16 16 -16 16 0 10 10 -3 20 -2 23 3 4 7 13 6 26 0 27 -15 24 -5
-6 14 -14 9 -25 13 -25 8z m198 -27 c-8 -8 -48 8 -42 16 3 5 14 4 25 -2 12 -6
19 -12 17 -14z m-261 -1 c-3 -3 -12 -4 -19 -1 -8 3 -5 6 6 6 11 1 17 -2 13 -5z
m208 -4 c4 -6 -1 -7 -11 -3 -12 4 -15 3 -10 -5 5 -8 -2 -12 -21 -12 l-28 1 25
14 c30 17 37 18 45 5z m-208 -16 c-3 -3 -12 -4 -19 -1 -8 3 -5 6 6 6 11 1 17
-2 13 -5z m38 -4 c3 -5 1 -10 -4 -10 -6 0 -11 5 -11 10 0 6 2 10 4 10 3 0 8
-4 11 -10z m82 -41 c10 -9 43 -15 85 -15 85 -2 88 -2 88 -11 0 -5 -37 -7 -82
-5 -61 3 -89 9 -109 23 -15 10 -33 19 -41 19 -7 0 1 -10 17 -21 17 -12 22 -18
12 -15 -10 3 -25 6 -33 6 -8 0 -14 7 -14 15 0 8 -4 15 -10 15 -5 0 -10 -4 -10
-10 0 -5 -17 -10 -37 -10 -23 0 -33 4 -27 9 23 23 133 23 161 0z m66 14 c-7
-2 -19 -2 -25 0 -7 3 -2 5 12 5 14 0 19 -2 13 -5z m132 -32 c-6 -5 -25 10 -25
20 0 5 6 4 14 -3 8 -7 12 -15 11 -17z m-405 15 c0 -2 -7 -7 -16 -10 -8 -3 -12
-2 -9 4 6 10 25 14 25 6z m100 -86 c-25 -4 -57 -10 -72 -14 -16 -5 -28 -6 -28
-2 0 10 63 24 105 24 l40 -1 -45 -7z"/>
<path d="M3505 2470 c-10 -33 -16 -62 -13 -65 2 -3 12 23 22 56 22 80 15 87
-9 9z"/>
<path d="M2356 2370 c-16 -5 -34 -6 -39 -3 -6 4 -7 1 -2 -6 5 -8 16 -10 34 -5
14 4 44 10 66 14 l40 7 -35 1 c-19 0 -48 -4 -64 -8z"/>
<path d="M2290 2306 c0 -2 7 -7 16 -10 8 -3 12 -2 9 4 -6 10 -25 14 -25 6z"/>
<path d="M2330 2290 c0 -5 9 -10 19 -10 20 0 35 -25 25 -41 -3 -5 0 -9 5 -9 6
0 11 11 11 25 0 18 -7 28 -26 35 -32 12 -34 12 -34 0z"/>
<path d="M2745 2240 c-3 -5 -2 -10 4 -10 5 0 13 5 16 10 3 6 2 10 -4 10 -5 0
-13 -4 -16 -10z"/>
<path d="M2406 2232 c-6 -9 65 -35 73 -27 2 3 -2 5 -10 5 -12 0 -11 2 1 10 11
8 7 9 -14 4 -21 -5 -27 -4 -22 5 4 6 1 11 -8 11 -8 0 -17 -4 -20 -8z"/>
<path d="M2555 2235 c-5 -2 -23 -6 -38 -9 -36 -8 -25 -26 16 -25 31 1 31 1 7
9 -21 7 -22 8 -5 9 11 1 27 6 35 11 14 9 6 12 -15 5z"/>
<path d="M2574 2213 c4 -5 23 -8 41 -8 18 0 31 3 28 8 -2 4 -20 7 -40 7 -20 0
-33 -3 -29 -7z"/>
<path d="M4070 990 c-24 -5 -70 -26 -103 -46 -32 -20 -70 -40 -85 -44 -17 -5
-20 -9 -9 -9 11 -1 15 -5 11 -13 -5 -8 -2 -9 10 -5 10 4 23 7 28 7 6 0 9 3 5
6 -3 3 6 16 21 29 52 43 94 58 183 63 75 4 97 1 160 -21 144 -50 172 -65 234
-133 33 -35 101 -95 150 -132 50 -38 109 -93 133 -123 24 -30 65 -77 90 -105
30 -34 58 -79 79 -130 18 -44 39 -95 48 -114 23 -53 95 -167 95 -151 0 7 -20
45 -44 85 -25 39 -63 118 -86 176 -30 77 -51 115 -78 140 -20 20 -58 63 -83
96 -27 35 -86 91 -140 131 -52 39 -125 103 -162 141 -63 65 -77 74 -172 110
-112 44 -207 58 -285 42z"/>
<path d="M673 165 c0 -27 2 -38 4 -22 2 15 2 37 0 50 -2 12 -4 0 -4 -28z"/>
</g>
</svg>
